<svg width="33" height="33" viewBox="0 0 33 33" fill="none" xmlns="http://www.w3.org/2000/svg">
<path d="M17.1083 3.15755C16.7591 3.00558 16.3814 2.93038 16.0006 2.93702C15.6198 2.94367 15.2449 3.03201 14.9013 3.19607L3.59778 8.5801C3.36367 8.68824 3.16605 8.86213 3.02901 9.08058C2.89196 9.29903 2.82139 9.55261 2.82589 9.81045C2.83039 10.0683 2.90977 10.3193 3.05436 10.5328C3.19894 10.7463 3.4025 10.9132 3.64024 11.0131L15.1383 16.0124C15.4875 16.1644 15.8652 16.2396 16.246 16.233C16.6267 16.2263 17.0016 16.138 17.3453 15.9739L28.6621 10.5897C28.8962 10.4815 29.0938 10.3076 29.2309 10.0892C29.3679 9.87073 29.4385 9.61715 29.434 9.35931C29.4295 9.10147 29.3501 8.8505 29.2055 8.63696C29.0609 8.42343 28.8574 8.25655 28.6196 8.15664L17.1083 3.15755Z" stroke="white" stroke-width="2.65945" stroke-linecap="round" stroke-linejoin="round"/>
<path d="M2.9375 16.4648C2.94131 16.7192 3.01797 16.967 3.15839 17.1791C3.29881 17.3911 3.4971 17.5585 3.72975 17.6613L15.2544 22.6601C15.6017 22.8101 15.9771 22.8843 16.3554 22.8777C16.7337 22.8711 17.1062 22.7839 17.4481 22.6218L28.7649 17.2376C28.9984 17.1277 29.1949 16.9522 29.3304 16.7326C29.4658 16.513 29.5345 16.2587 29.528 16.0007" stroke="white" stroke-width="2.65945" stroke-linecap="round" stroke-linejoin="round"/>
<path d="M3.05372 23.1124C3.05752 23.3668 3.13418 23.6146 3.2746 23.8267C3.41502 24.0387 3.61331 24.2061 3.84596 24.3089L15.3706 29.3077C15.7179 29.4577 16.0933 29.5319 16.4716 29.5253C16.8499 29.5187 17.2224 29.4315 17.5643 29.2694L28.8811 23.8852C29.1146 23.7753 29.3111 23.5998 29.4466 23.3802C29.5821 23.1606 29.6507 22.9063 29.6442 22.6483" stroke="white" stroke-width="2.65945" stroke-linecap="round" stroke-linejoin="round"/>
</svg>
